<svg width="240" height="240" viewBox="0 0 240 240" fill="currentColor" xmlns="http://www.w3.org/2000/svg">
<path d="M120.017 82.6957L120.009 82.6957H120C112.49 82.6957 105.137 84.8635 98.8685 88.9423C92.5984 93.0222 87.6869 98.8377 84.78 105.672C81.8723 112.508 81.1088 120.04 82.5934 127.308C84.0777 134.575 87.7374 141.228 93.0836 146.434C98.4281 151.639 105.218 155.166 112.588 156.593C119.956 158.021 127.596 157.289 134.546 154.486C141.498 151.682 147.465 146.923 151.676 140.786C155.887 134.648 158.146 127.414 158.146 120V119.991L158.146 119.982C158.115 110.05 154.049 100.567 146.888 93.5933C139.733 86.6253 130.07 82.7249 120.017 82.6957ZM182.806 127.876L182.297 131.372L185.106 133.513L203.511 147.546L186.299 176.484L164.357 167.9L161.245 166.682L158.571 168.687C154.187 171.975 149.386 174.706 144.283 176.812L141.123 178.116L140.634 181.499L137.38 204H102.601L99.3658 181.629L98.8737 178.226L95.6888 176.93C90.5917 174.856 85.8059 172.131 81.4568 168.83L78.7766 166.795L75.6429 168.021L53.6989 176.606L36.4887 147.675L54.8944 133.642L57.6913 131.51L57.197 128.028C56.8191 125.365 56.6189 122.682 56.5977 119.995C56.6145 117.362 56.8137 114.732 57.1938 112.124L57.7032 108.628L54.8944 106.487L36.4887 92.454L53.7009 63.5158L75.6429 72.1002L78.755 73.3178L81.4286 71.3129C85.8127 68.0252 90.6141 65.2941 95.7168 63.1879L98.8766 61.8836L99.3658 58.5005L102.62 36H137.399L140.634 58.3714L141.127 61.7771L144.315 63.0718C149.418 65.1441 154.211 67.869 158.565 71.1719L161.246 73.205L164.379 71.9782L186.301 63.394L203.511 92.3287L185.106 106.362L182.309 108.494L182.803 111.976C183.181 114.637 183.381 117.319 183.402 120.005C183.385 122.639 183.186 125.268 182.806 127.876Z" stroke="currentColor" stroke-width="12"/>
</svg>
